<?xml version="1.0" encoding="UTF-8" standalone="no"?>
<!-- Generator: Adobe Illustrator 16.0.0, SVG Export Plug-In . SVG Version: 6.00 Build 0)  -->

<svg
   version="1.1"
   id="Layer_1"
   x="0px"
   y="0px"
   width="443.186"
   height="97.956001"
   viewBox="0 0 443.186 97.956001"
   enable-background="new 0 0 792 612"
   xml:space="preserve"
   sodipodi:docname="logo2.svg"
   inkscape:version="1.1 (ce6663b3b7, 2021-05-25)"
   xmlns:inkscape="http://www.inkscape.org/namespaces/inkscape"
   xmlns:sodipodi="http://sodipodi.sourceforge.net/DTD/sodipodi-0.dtd"
   xmlns="http://www.w3.org/2000/svg"
   xmlns:svg="http://www.w3.org/2000/svg"><defs
   id="defs25" /><sodipodi:namedview
   id="namedview23"
   pagecolor="#ffffff"
   bordercolor="#666666"
   borderopacity="1.0"
   inkscape:pageshadow="2"
   inkscape:pageopacity="0.0"
   inkscape:pagecheckerboard="0"
   showgrid="false"
   inkscape:zoom="1.3431373"
   inkscape:cx="82.642336"
   inkscape:cy="43.182482"
   inkscape:window-width="1853"
   inkscape:window-height="1025"
   inkscape:window-x="67"
   inkscape:window-y="27"
   inkscape:window-maximized="1"
   inkscape:current-layer="Layer_1" />
<path
   fill-rule="evenodd"
   clip-rule="evenodd"
   fill="#636467"
   d="M 324.448,97.954 V 73.869 h 2.874 v 12.219 h 0.882 l 6.346,-7.568 h 3.283 l -7.341,8.658 8.778,10.776 h -3.63 l -7.437,-9.226 h -0.882 v 9.226 z m 91.513,0 V 78.519 h 2.798 v 2.659 c 0.409,-1.002 1.09,-1.739 2.042,-2.211 0.957,-0.474 2.218,-0.712 3.78,-0.712 1.651,0 2.938,0.252 3.87,0.755 0.926,0.512 1.619,1.33 2.078,2.465 0.562,-1.135 1.312,-1.953 2.238,-2.465 0.932,-0.503 2.148,-0.755 3.648,-0.755 2.546,0 4.31,0.503 5.294,1.512 0.982,1.015 1.475,2.829 1.475,5.451 v 12.735 h -2.875 V 86.125 c 0,-2.168 -0.276,-3.586 -0.838,-4.255 -0.561,-0.674 -1.65,-1.008 -3.276,-1.008 -1.796,0 -3.101,0.462 -3.919,1.375 -0.82,0.92 -1.229,2.388 -1.229,4.424 v 11.292 h -2.798 V 84.795 c 0,-1.537 -0.277,-2.578 -0.838,-3.119 -0.562,-0.542 -1.633,-0.813 -3.208,-0.813 -1.841,0 -3.201,0.468 -4.063,1.406 -0.871,0.933 -1.306,2.395 -1.306,4.393 v 11.292 z m -9.651,-2.312 c -0.441,0.813 -1.147,1.398 -2.111,1.765 -0.971,0.365 -2.307,0.548 -4.021,0.548 -3.036,0 -5.077,-0.435 -6.111,-1.304 -1.033,-0.87 -1.551,-2.483 -1.551,-4.854 0,-1.367 0.12,-2.438 0.359,-3.213 0.239,-0.775 0.637,-1.4 1.191,-1.866 0.466,-0.396 1.153,-0.674 2.061,-0.838 0.907,-0.17 2.205,-0.251 3.906,-0.251 1.759,0 3.107,0.144 4.034,0.435 0.932,0.289 1.632,0.769 2.098,1.449 V 84.16 c 0,-1.588 -0.309,-2.615 -0.92,-3.088 -0.617,-0.466 -2.161,-0.699 -4.632,-0.699 -1.796,0 -2.993,0.188 -3.585,0.566 -0.586,0.372 -0.896,1.078 -0.92,2.117 h -2.874 v -0.447 c 0,-1.663 0.535,-2.848 1.613,-3.554 1.077,-0.712 2.937,-1.064 5.571,-1.064 2.054,0 3.616,0.088 4.688,0.258 1.072,0.17 1.865,0.447 2.382,0.832 0.567,0.441 0.964,0.989 1.197,1.645 0.233,0.648 0.354,1.771 0.354,3.358 v 13.605 h -2.616 z m -0.146,-2.905 v -2.049 c 0,-0.926 -0.473,-1.6 -1.411,-2.028 -0.94,-0.435 -2.439,-0.649 -4.493,-0.649 -1.878,0 -3.138,0.24 -3.769,0.713 -0.637,0.473 -0.951,1.38 -0.951,2.722 0,1.531 0.334,2.546 1.009,3.057 0.667,0.51 2.009,0.77 4.025,0.77 1.81,0 3.189,-0.222 4.153,-0.656 0.959,-0.437 1.437,-1.067 1.437,-1.88 z m -23.332,1.965 c -0.46,1.135 -1.178,1.96 -2.155,2.478 -0.976,0.517 -2.306,0.774 -3.977,0.774 -2.771,0 -4.731,-0.573 -5.873,-1.727 -1.146,-1.153 -1.72,-3.132 -1.72,-5.936 v -4.62 c 0,-2.816 0.573,-4.801 1.72,-5.954 1.142,-1.153 3.102,-1.727 5.873,-1.727 1.601,0 2.867,0.239 3.801,0.712 0.938,0.472 1.676,1.248 2.218,2.318 v -7.152 h 2.874 v 23.82 h -2.761 z m -0.113,-5.135 v -3.169 c 0,-2.035 -0.473,-3.504 -1.411,-4.424 -0.946,-0.914 -2.452,-1.374 -4.519,-1.374 -1.884,0 -3.139,0.34 -3.762,1.014 -0.625,0.675 -0.933,2.244 -0.933,4.708 v 3.321 c 0,2.451 0.308,4.014 0.933,4.688 0.623,0.675 1.878,1.015 3.762,1.015 2.066,0 3.572,-0.46 4.519,-1.373 0.938,-0.922 1.411,-2.39 1.411,-4.406 z m -74.714,8.387 c -2.903,0 -4.933,-0.567 -6.093,-1.701 -1.153,-1.129 -1.734,-3.119 -1.734,-5.968 v -4.607 c 0,-2.86 0.574,-4.852 1.729,-5.986 1.146,-1.133 3.169,-1.7 6.062,-1.7 h 1.72 c 2.904,0 4.94,0.566 6.101,1.7 1.159,1.134 1.738,3.126 1.738,5.986 v 2.938 l -14.36,0.019 c -0.013,0.195 -0.02,0.416 -0.025,0.649 -0.007,0.239 -0.014,0.573 -0.014,1.002 0,2.01 0.322,3.352 0.966,4.033 0.636,0.687 1.928,1.026 3.875,1.026 h 1.72 c 1.732,0 2.937,-0.252 3.617,-0.749 0.674,-0.499 1.071,-1.367 1.178,-2.615 h 3.006 c -0.145,2.11 -0.825,3.63 -2.035,4.568 -1.209,0.938 -3.12,1.405 -5.734,1.405 z m -4.839,-11.872 h 11.374 v -0.756 c 0,-1.821 -0.328,-3.057 -0.978,-3.713 -0.655,-0.648 -1.947,-0.976 -3.875,-0.976 h -1.72 c -1.922,0 -3.201,0.327 -3.845,0.976 -0.637,0.656 -0.957,1.892 -0.957,3.713 v 0.756 z m -24.858,-5.369 v -2.457 h 3.018 v -4.387 h 2.875 v 4.387 h 8.893 v 2.457 h -8.893 v 10.7 c 0,1.524 0.251,2.565 0.749,3.113 0.498,0.548 1.449,0.818 2.849,0.818 1.393,0 1.696,-0.265 2.182,-0.794 0.484,-0.528 0.731,-1.575 0.731,-3.138 v -0.566 h 2.916 v 0.163 c 0,2.734 -0.453,4.575 -1.354,5.521 -0.907,0.951 -2.149,1.424 -5.004,1.424 -2.225,0 -3.775,-0.504 -4.645,-1.506 -0.863,-1.002 -1.299,-2.817 -1.299,-5.438 V 80.713 Z m -24.262,11.191 h 2.912 v 0.441 c 0,1.196 0.371,2.022 1.108,2.477 0.737,0.448 2.219,0.674 4.449,0.674 2.496,0 4.032,-0.226 4.612,-0.687 0.58,-0.453 0.87,-1.336 0.87,-2.641 0,-1.267 -0.239,-2.117 -0.712,-2.539 -0.473,-0.429 -1.658,-0.688 -3.549,-0.788 -0.704,-0.037 -1.65,-0.075 -2.842,-0.113 -2.608,-0.069 -4.158,-0.252 -4.65,-0.529 -0.737,-0.409 -1.267,-0.964 -1.576,-1.663 -0.313,-0.699 -0.472,-1.708 -0.472,-3.025 0,-2.155 0.548,-3.611 1.646,-4.373 1.089,-0.763 3.504,-1.146 7.234,-1.146 2.892,0 4.845,0.366 5.872,1.09 1.026,0.724 1.544,2.004 1.544,3.825 h -2.873 v -0.184 c 0,-0.862 -0.373,-1.455 -1.115,-1.783 -0.751,-0.327 -2.231,-0.491 -4.443,-0.491 -2.148,0 -3.51,0.195 -4.103,0.592 -0.593,0.392 -0.888,1.217 -0.888,2.471 0,0.763 0.056,1.292 0.163,1.601 0.114,0.309 0.31,0.542 0.593,0.699 0.579,0.309 1.859,0.487 3.844,0.536 0.504,0.012 0.896,0.024 1.166,0.037 1.626,0.063 2.898,0.146 3.825,0.253 0.926,0.101 1.581,0.246 1.979,0.435 0.863,0.391 1.475,0.958 1.841,1.695 0.358,0.743 0.541,1.814 0.541,3.22 0,1.424 -0.177,2.516 -0.535,3.252 -0.358,0.737 -0.996,1.393 -1.922,1.96 -0.416,0.271 -1.104,0.466 -2.049,0.58 -0.951,0.119 -2.269,0.176 -3.957,0.176 -3.446,0 -5.728,-0.397 -6.843,-1.191 -1.116,-0.8 -1.671,-2.243 -1.671,-4.341 v -0.52 z m -16.93,6.05 c -2.903,0 -4.934,-0.567 -6.093,-1.701 -1.153,-1.129 -1.733,-3.119 -1.733,-5.968 v -4.607 c 0,-2.86 0.573,-4.852 1.728,-5.986 1.146,-1.133 3.169,-1.7 6.062,-1.7 h 1.349 c 2.904,0 4.941,0.566 6.101,1.7 1.16,1.134 1.739,3.127 1.739,5.986 v 2.938 l -13.99,0.019 c -0.013,0.195 -0.02,0.416 -0.025,0.649 -0.006,0.239 -0.013,0.573 -0.013,1.002 0,2.01 0.321,3.352 0.965,4.033 0.636,0.687 1.929,1.026 3.875,1.026 h 1.349 c 1.732,0 2.937,-0.252 3.617,-0.749 0.675,-0.499 1.071,-1.367 1.178,-2.615 h 3.006 c -0.145,2.11 -0.825,3.63 -2.034,4.568 -1.21,0.938 -3.12,1.405 -5.735,1.405 z m -4.838,-11.872 h 11.003 v -0.756 c 0,-1.821 -0.327,-3.057 -0.977,-3.713 -0.656,-0.648 -1.948,-0.976 -3.876,-0.976 h -1.349 c -1.922,0 -3.201,0.327 -3.844,0.976 -0.638,0.656 -0.958,1.892 -0.958,3.713 v 0.756 z m -35.083,11.872 c -2.905,0 -4.934,-0.567 -6.093,-1.701 -1.154,-1.129 -1.734,-3.119 -1.734,-5.968 v -4.607 c 0,-2.86 0.574,-4.852 1.727,-5.986 1.147,-1.133 3.169,-1.7 6.063,-1.7 h 1.348 c 2.905,0 4.94,0.567 6.1,1.7 1.16,1.135 1.739,3.126 1.739,5.986 v 2.938 l -13.99,0.019 c -0.012,0.195 -0.019,0.416 -0.026,0.649 -0.006,0.239 -0.012,0.573 -0.012,1.002 0,2.01 0.322,3.352 0.964,4.033 0.637,0.687 1.929,1.026 3.876,1.026 h 1.348 c 1.733,0 2.937,-0.252 3.617,-0.749 0.674,-0.499 1.071,-1.367 1.179,-2.615 h 3.005 c -0.145,2.11 -0.826,3.63 -2.035,4.568 -1.21,0.938 -3.119,1.405 -5.734,1.405 z m -4.839,-11.872 h 11.003 v -0.756 c 0,-1.821 -0.328,-3.057 -0.978,-3.713 -0.655,-0.648 -1.947,-0.976 -3.875,-0.976 h -1.348 c -1.923,0 -3.202,0.327 -3.844,0.976 -0.637,0.656 -0.958,1.892 -0.958,3.713 z m 20.911,2.54 v -2.571 h 9.101 v 2.571 z m 132.925,9.332 V 73.869 h 2.761 v 7.31 c 0.473,-1.002 1.222,-1.739 2.256,-2.211 1.034,-0.474 2.396,-0.712 4.097,-0.712 2.545,0 4.329,0.516 5.35,1.543 1.021,1.027 1.531,2.836 1.531,5.42 v 12.735 h -2.873 V 85.829 c 0,-2.029 -0.297,-3.364 -0.896,-4.007 -0.599,-0.638 -1.759,-0.959 -3.479,-0.959 -2.035,0 -3.516,0.462 -4.461,1.388 -0.939,0.92 -1.411,2.388 -1.411,4.411 v 11.292 z"
   id="path2"
   style="fill:#babcbe;fill-opacity:1" />
<polygon
   fill-rule="evenodd"
   clip-rule="evenodd"
   fill="#636467"
   points="248.271,262.951 248.271,275.262 248.271,287.573 248.271,299.883 248.271,312.194 248.271,324.505 260.582,324.505 260.582,312.194 260.582,299.883 260.582,287.573 260.582,275.262 260.582,262.951 "
   id="polygon4"
   transform="translate(-174.407,-262.951)"
   style="fill:#babcbe;fill-opacity:1" />
<path
   fill-rule="evenodd"
   clip-rule="evenodd"
   fill="#636467"
   d="m 204.93,47.394 v 0 L 181.411,23.875 c -3.605,-3.605 -8.332,-5.408 -13.058,-5.408 h -19.131 v 12.311 h 19.131 c 1.575,0 3.151,0.601 4.353,1.802 l 23.519,23.519 c 3.605,3.605 8.332,5.408 13.057,5.408 v 0.047 h 6.156 c 4.73,0 9.044,-1.779 12.311,-4.704 3.268,2.925 7.581,4.704 12.311,4.704 h 6.155 6.156 c 4.729,0 9.043,-1.779 12.311,-4.704 3.267,2.925 7.58,4.704 12.311,4.704 4.729,0 9.044,-1.779 12.311,-4.704 3.267,2.925 7.581,4.704 12.311,4.704 10.198,0 18.466,-8.268 18.466,-18.466 V 36.933 24.622 12.311 H 307.77 v 12.311 12.311 6.155 c 0,3.4 -2.756,6.156 -6.155,6.156 -3.399,0 -6.155,-2.756 -6.155,-6.156 V 36.933 24.622 h -12.311 v 12.311 6.155 c 0,3.4 -2.756,6.156 -6.155,6.156 -3.399,0 -6.155,-2.756 -6.155,-6.156 V 36.933 24.622 h -12.312 v 12.311 6.155 c 0,3.4 -2.756,6.156 -6.154,6.156 h -6.156 -6.155 c -3.399,0 -6.155,-2.756 -6.155,-6.156 V 36.933 24.622 18.467 h -12.314 v 6.155 12.311 6.155 c 0,3.4 -2.756,6.156 -6.155,6.156 h -6.156 v -0.047 c -1.575,-0.001 -3.15,-0.601 -4.352,-1.803"
   id="path6"
   style="fill:#babcbe;fill-opacity:1" />
<path
   fill-rule="evenodd"
   clip-rule="evenodd"
   fill="#636467"
   d="m 406.254,12.311 h 12.311 V 0 h -12.311 -6.156 C 389.9,0 381.632,8.268 381.632,18.466 v 6.155 12.311 h 12.311 12.312 v 6.155 c 0,3.4 -2.756,6.156 -6.156,6.156 h -6.155 -12.311 -6.155 c -3.399,0 -6.155,-2.756 -6.155,-6.156 V 36.932 24.621 12.31 h -12.311 v 12.311 12.311 6.155 c 0,10.199 8.268,18.466 18.466,18.466 h 6.155 12.311 6.155 c 10.199,0 18.467,-8.268 18.467,-18.466 v -6.155 c 0,-6.799 -5.512,-12.311 -12.311,-12.311 h -12.312 v -6.155 c 0,-3.399 2.757,-6.155 6.155,-6.155 z"
   id="path8"
   style="fill:#babcbe;fill-opacity:1" />
<path
   fill-rule="evenodd"
   clip-rule="evenodd"
   fill="#636467"
   d="m 189.369,49.243 v 12.311 h -12.311 -4.708 -12.311 -6.155 -4.662 c -4.83,0 -9.226,-1.854 -12.517,-4.89 -2.484,2.987 -6.227,4.89 -10.416,4.89 h -11.08 -12.311 -4.414 V 49.243 h 4.414 12.311 11.08 c 0.68,0 1.231,-0.552 1.231,-1.231 0,-0.34 -0.138,-0.647 -0.36,-0.87 v 0 l -28.675,-28.675 8.705,-8.705 28.675,28.675 9.003,9.004 c 1.114,1.113 2.653,1.803 4.353,1.803 h 4.662 6.155 12.311 4.708 12.312 z"
   id="path10"
   style="fill:#babcbe;fill-opacity:1" />
<polygon
   fill-rule="evenodd"
   clip-rule="evenodd"
   fill="#636467"
   points="605.282,262.951 605.282,275.262 605.282,287.573 605.282,299.883 605.282,312.194 605.282,324.505 617.593,324.505 617.593,312.194 617.593,299.883 617.593,287.573 617.593,275.262 617.593,262.951 "
   id="polygon12"
   transform="translate(-174.407,-262.951)"
   style="fill:#babcbe;fill-opacity:1" />
<polygon
   fill-rule="evenodd"
   clip-rule="evenodd"
   fill="#636467"
   points="519.107,324.505 519.107,312.194 519.107,299.883 519.107,287.573 519.107,275.262 519.107,262.951 506.797,262.951 506.797,275.262 506.797,287.573 506.797,299.883 506.797,312.194 506.797,324.505 "
   id="polygon14"
   transform="translate(-174.407,-262.951)"
   style="fill:#babcbe;fill-opacity:1" />
<path
   fill-rule="evenodd"
   clip-rule="evenodd"
   fill="#602d8f"
   d="M 49.243,49.243 H 61.554 V 61.554 H 49.243 36.932 30.776 C 13.778,61.554 0,47.775 0,30.778 0,13.78 13.779,10e-4 30.776,10e-4 h 6.156 6.155 c 10.198,0 18.466,8.268 18.466,18.466 v 6.155 c 0,6.799 -5.512,12.311 -12.311,12.311 H 36.931 24.62 V 24.622 h 12.311 12.311 v -6.155 c 0,-3.399 -2.756,-6.155 -6.155,-6.155 h -6.155 -6.156 c -10.198,0 -18.466,8.267 -18.466,18.466 0,10.198 8.268,18.466 18.466,18.466 h 6.156 12.311 z"
   id="path16"
   style="fill:#ffffff;fill-opacity:1" />
<path
   fill-rule="evenodd"
   clip-rule="evenodd"
   fill="#636467"
   d="m 155.378,0 c 3.399,0 6.155,2.756 6.155,6.156 0,3.399 -2.756,6.155 -6.155,6.155 -3.399,0 -6.155,-2.756 -6.155,-6.155 C 149.222,2.756 151.978,0 155.378,0"
   id="path18"
   style="fill:#babcbe;fill-opacity:1" />
<path
   fill-rule="evenodd"
   clip-rule="evenodd"
   fill="#636467"
   d="m 228.097,0 c 3.399,0 6.155,2.756 6.155,6.156 0,3.399 -2.756,6.155 -6.155,6.155 -3.399,0 -6.155,-2.756 -6.155,-6.155 0,3.399 -2.756,6.155 -6.155,6.155 -3.4,0 -6.156,-2.756 -6.156,-6.155 0,-3.4 2.756,-6.156 6.156,-6.156 3.399,0 6.155,2.756 6.155,6.156 0,-3.4 2.755,-6.156 6.155,-6.156"
   id="path20"
   style="fill:#babcbe;fill-opacity:1" />
</svg>
